<svg version="1.1" xmlns="http://www.w3.org/2000/svg" xmlns:xlink="http://www.w3.org/1999/xlink" width="58.62671" height="58.62671" viewBox="0,0,58.62671,58.62671"><g transform="translate(-210.68665,-150.68665)"><g data-paper-data="{&quot;isPaintingLayer&quot;:true}" fill-rule="nonzero" stroke-linejoin="miter" stroke-miterlimit="10" stroke-dasharray="" stroke-dashoffset="0" style="mix-blend-mode: normal"><path d="M212.43665,180c0,-15.22283 12.34053,-27.56335 27.56335,-27.56335c15.22283,0 27.56335,12.34053 27.56335,27.56335c0,15.22283 -12.34053,27.56335 -27.56335,27.56335c-15.22283,0 -27.56335,-12.34053 -27.56335,-27.56335z" fill="#ce7e39" stroke="#995417" stroke-width="3.5" stroke-linecap="butt"/><path d="M248.18427,165.16689" fill="none" stroke="#995417" stroke-width="5" stroke-linecap="round"/><g fill="none" stroke="#ed9242" stroke-width="3" stroke-linecap="round"><path d="M246.38038,166.70851c-2.18545,0.23507 -6.72131,-2.26802 -11.86901,-0.50946c-4.71402,1.61039 -7.54924,3.51918 -6.76014,8.09283c0.7891,4.57365 6.32255,7.59104 9.75338,7.23649c3.93258,-0.40639 9.6721,4.63713 9.72317,7.32724c0.04314,2.27307 -2.65119,8.65778 -8.9264,9.3083c-6.39168,0.66259 -12.34733,-4.86259 -12.34733,-4.86259"/><path d="M233.01506,202.34176l0.73502,-41.52876"/><path d="M241.83533,161.18049l-0.73502,41.16126"/></g><path d="M250.69685,163.41455c-2.28257,0.24551 -7.01998,-2.3688 -12.3964,-0.53211c-4.92349,1.68194 -7.88469,3.67556 -7.06053,8.45243c0.82416,4.77689 6.60349,7.92835 10.18677,7.55803c4.10734,-0.42446 10.1019,4.84318 10.15521,7.65282c0.04506,2.37407 -2.76899,9.04249 -9.32304,9.72192c-6.67568,0.69203 -12.89598,-5.07866 -12.89598,-5.07866" fill="none" stroke="#995417" stroke-width="5" stroke-linecap="round"/><path d="M237.13291,200.21164l0.73502,-41.52876" fill="none" stroke="#995417" stroke-width="5" stroke-linecap="round"/><path d="M245.24418,159.2867l-0.73503,41.16126" fill="none" stroke="#995417" stroke-width="5" stroke-linecap="round"/><path d="M234.22392,155.34514c0,0 21.37316,-6.68418 30.39865,16.91765c2.71021,14.37679 -2.74923,20.76891 -2.74923,20.76891" fill="none" stroke="#ed9242" stroke-width="1.5" stroke-linecap="round"/><path d="M255.8132,161.02654c0,0 -1.94404,1.31243 -2.38461,2.38236c-0.73133,1.77611 -1.59235,5.76094 -1.59235,5.76094l-1.2717,-6.17385l-2.70528,-1.96947c0,0 1.90361,-0.63104 2.39588,-1.88628c0.69736,-1.7783 1.39172,-5.12076 1.39172,-5.12076l1.3601,5.0984z" fill="#ffffff" stroke="#ffffff" stroke-width="1.5" stroke-linecap="butt"/><path d="M259.11741,166.73762c0.29258,0.55783 0.13215,0.81698 -0.3583,0.57875c-0.49046,-0.23823 -1.12526,-0.88355 -1.41782,-1.44141c-0.29258,-0.55783 -0.13215,-0.81698 0.3583,-0.57875c0.49046,0.23823 1.12526,0.88355 1.41782,1.44141z" fill="none" stroke="#ffffff" stroke-width="3" stroke-linecap="butt"/><path d="M255.50546,183.26975z" fill="none" stroke="#ededed" stroke-width="3" stroke-linecap="butt"/></g></g></svg>