<svg version="1.1" xmlns="http://www.w3.org/2000/svg" xmlns:xlink="http://www.w3.org/1999/xlink" width="65.33909" height="67.71924" viewBox="0,0,65.33909,67.71924"><g transform="translate(-207.33046,-145.39027)"><g data-paper-data="{&quot;isPaintingLayer&quot;:true}" fill-rule="nonzero" stroke-linejoin="miter" stroke-miterlimit="10" stroke-dasharray="" stroke-dashoffset="0" style="mix-blend-mode: normal"><path d="M209.08046,180.43996c0,-17.07639 13.84315,-30.91954 30.91954,-30.91954c17.07639,0 30.91954,13.84315 30.91954,30.91954c0,17.07639 -13.84315,30.91954 -30.91954,30.91954c-17.07639,0 -30.91954,-13.84315 -30.91954,-30.91954z" fill="#ebe3db" stroke="#888888" stroke-width="3.5" stroke-linecap="butt"/><path d="M233.52061,152.78305c0,0 19.34296,-5.13536 29.82255,10.88125c11.76609,17.9829 0.39691,32.19075 0.39691,32.19075" fill="none" stroke="#fffbf7" stroke-width="1.5" stroke-linecap="round"/><path d="M249.1808,163.80071" fill="none" stroke="#995417" stroke-width="5" stroke-linecap="round"/><g fill="none" stroke="#fffbf7" stroke-width="3" stroke-linecap="round"><path d="M246.89172,165.79559c-2.45157,0.2637 -7.53972,-2.54418 -13.31421,-0.5715c-5.28802,1.80646 -8.46844,3.94769 -7.58328,9.07826c0.88518,5.13054 7.09239,8.51533 10.94098,8.11762c4.41142,-0.45588 10.8498,5.20177 10.90708,8.21942c0.0484,2.54984 -2.97401,9.71197 -10.0133,10.44171c-7.16993,0.74328 -13.85076,-5.45467 -13.85076,-5.45467"/><path d="M232.72353,159.18222l-0.82451,46.58544"/><path d="M240.96876,205.76766l0.82451,-46.17318"/></g><path d="M250.98116,163.40565c-2.45157,0.2637 -7.53972,-2.54418 -13.31421,-0.5715c-5.28802,1.80646 -8.46844,3.94769 -7.58328,9.07826c0.88518,5.13054 7.09239,8.51533 10.94098,8.11762c4.41144,-0.45588 10.84981,5.20177 10.9071,8.21942c0.0484,2.54984 -2.97401,9.71197 -10.0133,10.44171c-7.16993,0.74328 -13.85076,-5.45467 -13.85076,-5.45467" fill="none" stroke="#888888" stroke-width="5" stroke-linecap="round"/><path d="M236.81297,156.79228l-0.82451,46.58544" fill="none" stroke="#888888" stroke-width="5" stroke-linecap="round"/><path d="M245.88272,157.20453l-0.82453,46.17318" fill="none" stroke="#888888" stroke-width="5" stroke-linecap="round"/><path d="M258.26975,156.50072c0,0 -2.18076,1.47222 -2.67497,2.67246c-0.82039,1.99236 -1.78625,6.46242 -1.78625,6.46242l-1.42654,-6.9256l-3.03468,-2.20927c0,0 2.13541,-0.70788 2.6876,-2.11597c0.78229,-1.99484 1.56117,-5.74426 1.56117,-5.74426l1.5257,5.71919z" fill="#ffffff" stroke="#ffffff" stroke-width="1.5" stroke-linecap="butt"/><path d="M260.64854,164.50051c0.32821,0.62578 0.14826,0.91646 -0.40193,0.64922c-0.55018,-0.26723 -1.26227,-0.99114 -1.59046,-1.61692c-0.32821,-0.62578 -0.14826,-0.91646 0.40193,-0.64922c0.55018,0.26723 1.26227,0.99114 1.59046,1.61692z" fill="none" stroke="#ffffff" stroke-width="3" stroke-linecap="butt"/><path d="M257.39344,184.10784z" fill="none" stroke="#ededed" stroke-width="3" stroke-linecap="butt"/></g></g></svg>