<svg version="1.1" xmlns="http://www.w3.org/2000/svg" xmlns:xlink="http://www.w3.org/1999/xlink" width="80.59889" height="83.19617" viewBox="0,0,80.59889,83.19617"><g transform="translate(-199.70056,-137.65181)"><g data-paper-data="{&quot;isPaintingLayer&quot;:true}" fill-rule="nonzero" stroke-linejoin="miter" stroke-miterlimit="10" stroke-dasharray="" stroke-dashoffset="0" style="mix-blend-mode: normal"><path d="M201.45056,180.54853c0,-21.29028 17.25919,-38.54944 38.54945,-38.54944c21.29027,0 38.54944,17.25919 38.54944,38.54944c0,21.29028 -17.25919,38.54944 -38.54944,38.54944c-21.29028,0 -38.54945,-17.25919 -38.54945,-38.54944z" fill="#19fff6" stroke="#0095b0" stroke-width="3.5" stroke-linecap="butt"/><path d="M231.92171,146.06683c0,0 24.11618,-6.40259 37.18177,13.56637c14.66957,22.42048 0.49485,40.13435 0.49485,40.13435" fill="none" stroke="#b1ffed" stroke-width="1.5" stroke-linecap="round"/><path d="M251.44632,159.80328" fill="none" stroke="#995417" stroke-width="5" stroke-linecap="round"/><g fill="none" stroke="#00c8d6" stroke-width="3" stroke-linecap="round"><path d="M248.59237,162.29044c-3.05655,0.32879 -9.40027,-3.172 -16.59972,-0.71254c-6.59291,2.25226 -10.55818,4.92185 -9.45458,11.31844c1.10362,6.39659 8.84256,10.61663 13.64085,10.12078c5.50001,-0.56836 13.52717,6.48539 13.59859,10.2477c0.06035,3.17905 -3.7079,12.10855 -12.48426,13.01838c-8.93925,0.92668 -17.26867,-6.8007 -17.26867,-6.8007"/><path d="M229.89998,212.12625l1.02798,-58.08116"/><path d="M242.23578,154.55907l-1.02798,57.56718"/></g><path d="M253.69095,158.76222c-3.05655,0.32879 -9.40027,-3.172 -16.59972,-0.71254c-6.59291,2.25226 -10.55818,4.92185 -9.45458,11.31844c1.10362,6.39659 8.84256,10.61663 13.64085,10.12078c5.50003,-0.56836 13.52718,6.48539 13.59861,10.2477c0.06035,3.17905 -3.7079,12.10854 -12.48426,13.01837c-8.93925,0.92668 -17.26866,-6.80069 -17.26866,-6.80069" fill="none" stroke="#0084b0" stroke-width="5" stroke-linecap="round"/><path d="M236.02655,151.06539l-1.02798,58.08117" fill="none" stroke="#0084b0" stroke-width="5" stroke-linecap="round"/><path d="M246.30638,209.14656l1.02799,-57.56718" fill="none" stroke="#0084b0" stroke-width="5" stroke-linecap="round"/><path d="M262.7781,150.70191c0,0 -2.7189,1.83552 -3.33505,3.33193c-1.02284,2.48403 -2.22704,8.05712 -2.22704,8.05712l-1.77855,-8.63462l-3.78355,-2.75445c0,0 2.66236,-0.88256 3.3508,-2.63811c0.97534,-2.4871 1.94643,-7.16175 1.94643,-7.16175l1.90219,7.13049z" fill="#ffffff" stroke="#ffffff" stroke-width="1.5" stroke-linecap="butt"/><path d="M265.74392,160.67577c0.40919,0.7802 0.18485,1.1426 -0.5011,0.80943c-0.68595,-0.33317 -1.57374,-1.23574 -1.98294,-2.01591c-0.40919,-0.7802 -0.18484,-1.14259 0.5011,-0.80943c0.68595,0.33317 1.57373,1.23574 1.98293,2.01591z" fill="none" stroke="#ffffff" stroke-width="3" stroke-linecap="butt"/><path d="M261.68556,185.12155z" fill="none" stroke="#ededed" stroke-width="3" stroke-linecap="butt"/><path d="M218.31444,209.95234c0,0 -7.79722,-3.28869 -13.24025,-17.35646c-4.74256,-12.25732 -1.32714,-19.39313 -1.32714,-19.39313" fill="none" stroke="#00d1c9" stroke-width="1.5" stroke-linecap="round"/></g></g></svg>