<svg version="1.1" xmlns="http://www.w3.org/2000/svg" xmlns:xlink="http://www.w3.org/1999/xlink" width="77.75566" height="80.31249" viewBox="0,0,77.75566,80.31249"><g transform="translate(-201.12217,-139.09365)"><g data-paper-data="{&quot;isPaintingLayer&quot;:true}" fill-rule="nonzero" stroke-linejoin="miter" stroke-miterlimit="10" stroke-dasharray="" stroke-dashoffset="0" style="mix-blend-mode: normal"><path d="M202.87217,180.5283c0,-20.50514 16.62271,-37.12783 37.12783,-37.12783c20.50514,0 37.12783,16.62271 37.12783,37.12783c0,20.50514 -16.62271,37.12783 -37.12783,37.12783c-20.50514,0 -37.12783,-16.62271 -37.12783,-37.12783z" fill="#ffcf19" stroke="#af8900" stroke-width="3.5" stroke-linecap="butt"/><path d="M232.21962,147.3182c0,0 23.22683,-6.16648 35.81059,13.06608c14.12859,21.59366 0.4766,38.65429 0.4766,38.65429" fill="none" stroke="#f9d965" stroke-width="1.5" stroke-linecap="round"/><path d="M251.02421,160.54808" fill="none" stroke="#995417" stroke-width="5" stroke-linecap="round"/><g fill="none" stroke="#ffdf69" stroke-width="3" stroke-linecap="round"><path d="M248.2755,162.94352c-2.94383,0.31666 -9.05361,-3.05502 -15.98756,-0.68626c-6.34978,2.1692 -10.16882,4.74035 -9.10592,10.90105c1.06292,6.1607 8.51647,10.22511 13.13781,9.74755c5.29719,-0.5474 13.02832,6.24622 13.09711,9.86979c0.05812,3.06181 -3.57116,11.66201 -12.02387,12.53829c-8.60959,0.89251 -16.63184,-6.5499 -16.63184,-6.5499"/><path d="M230.27244,210.94151l0.99007,-55.93927"/><path d="M242.15333,155.49727l-0.99007,55.44424"/></g><path d="M253.18606,160.07371c-2.94383,0.31666 -9.05361,-3.05502 -15.98756,-0.68626c-6.34978,2.1692 -10.16882,4.74035 -9.10592,10.90105c1.06292,6.1607 8.51647,10.22511 13.13781,9.74755c5.2972,-0.5474 13.02833,6.24622 13.09712,9.86979c0.05812,3.06181 -3.57116,11.66201 -12.02387,12.53829c-8.60959,0.89251 -16.63184,-6.5499 -16.63184,-6.5499" fill="none" stroke="#af8900" stroke-width="5" stroke-linecap="round"/><path d="M236.17308,152.13242l-0.99007,55.93927" fill="none" stroke="#af8900" stroke-width="5" stroke-linecap="round"/><path d="M247.0639,152.62746l-0.99008,55.44424" fill="none" stroke="#af8900" stroke-width="5" stroke-linecap="round"/><path d="M261.9381,151.78235c0,0 -2.61863,1.76783 -3.21206,3.20905c-0.98512,2.39242 -2.14492,7.76 -2.14492,7.76l-1.71296,-8.3162l-3.64402,-2.65287c0,0 2.56418,-0.85001 3.22723,-2.54082c0.93937,-2.39538 1.87465,-6.89765 1.87465,-6.89765l1.83204,6.86754z" fill="#ffffff" stroke="#ffffff" stroke-width="1.5" stroke-linecap="butt"/><path d="M264.79455,161.3884c0.3941,0.75143 0.17803,1.10046 -0.48262,0.77958c-0.66065,-0.32088 -1.5157,-1.19017 -1.90981,-1.94157c-0.3941,-0.75143 -0.17803,-1.10046 0.48262,-0.77958c0.66065,0.32088 1.5157,1.19017 1.90981,1.94157z" fill="none" stroke="#ffffff" stroke-width="3" stroke-linecap="butt"/><path d="M260.88585,184.93267z" fill="none" stroke="#ededed" stroke-width="3" stroke-linecap="butt"/><path d="M219.11415,208.84776c0,0 -7.50968,-3.16741 -12.75198,-16.71639c-4.56766,-11.8053 -1.2782,-18.67796 -1.2782,-18.67796" fill="none" stroke="#d1a400" stroke-width="1.5" stroke-linecap="round"/></g></g></svg>