<svg version="1.1" xmlns="http://www.w3.org/2000/svg" xmlns:xlink="http://www.w3.org/1999/xlink" width="66.23004" height="69.31862" viewBox="0,0,66.23004,69.31862"><defs><radialGradient cx="240" cy="180" r="32.31326" gradientUnits="userSpaceOnUse" id="color-1"><stop offset="0" stop-color="#ffe800"/><stop offset="1" stop-color="#ffc300"/></radialGradient></defs><g transform="translate(-206.88498,-143.99464)"><g data-paper-data="{&quot;isPaintingLayer&quot;:true}" fill-rule="nonzero" stroke-width="2" stroke-linejoin="miter" stroke-miterlimit="10" stroke-dasharray="" stroke-dashoffset="0" style="mix-blend-mode: normal"><path d="M272.11502,180c0,17.84612 -14.37838,32.31326 -32.11502,32.31326c-17.73663,0 -32.11502,-14.46714 -32.11502,-32.31326c0,-17.84612 14.37838,-32.31326 32.11502,-32.31326c17.73663,0 32.11502,14.46714 32.11502,32.31326z" fill="url(#color-1)" stroke="#c29d00" stroke-linecap="butt"/><path d="M229.65769,207.04155c0,0 0.47402,-4.80175 -2.81395,-12.78683c-2.54692,-6.18536 -6.08187,-13.26434 -6.08187,-13.26434c0,0 -2.55154,-3.5587 -0.26805,-4.91936c4.86813,-2.90076 10.59648,9.90302 8.78166,7.48571c-0.0795,-0.1059 0.30616,-16.0734 0.30616,-16.0734c0,0 -0.93818,-10.91472 3.27443,-11.02316c4.47445,-0.11518 3.53104,10.49223 3.53104,10.49223l0.03101,11.34729l0.19189,-4.80278c0,0 -0.00421,-6.18681 3.36592,-6.4136c3.08787,-0.20779 2.86227,6.41732 2.86227,6.41732l-0.56883,7.13705c0,0 -1.18096,-11.57803 3.35036,-11.60685c3.0631,-0.0111 2.03328,4.46872 2.03328,4.46872l-0.16905,9.08377l0.41542,-8.33917c0,0 1.36782,-3.14992 2.94145,-3.13125c2.80699,0.00983 2.8482,3.18478 2.8482,3.18478l-0.23931,20.77875l-3.51368,12.47672z" fill="#ffffff" stroke="#000000" stroke-linecap="butt"/><g fill="none" stroke="#000000" stroke-linecap="round"><path d="M222.8683,156.28589h6.3077"/><path d="M235.97056,156.0719h6.3077"/><path d="M232.83634,151.30235v-6.3077"/><path d="M235.98467,152.92233l4.95629,-3.90157"/><path d="M224.73229,149.11683l5.07292,3.74868"/></g></g></g></svg>