<svg version="1.1" xmlns="http://www.w3.org/2000/svg" xmlns:xlink="http://www.w3.org/1999/xlink" width="66.23004" height="66.62652" viewBox="0,0,66.23004,66.62652"><defs><radialGradient cx="240" cy="180" r="32.31326" gradientUnits="userSpaceOnUse" id="color-1"><stop offset="0" stop-color="#ffe800"/><stop offset="1" stop-color="#ffc300"/></radialGradient></defs><g transform="translate(-206.88498,-146.68674)"><g data-paper-data="{&quot;isPaintingLayer&quot;:true}" fill-rule="nonzero" stroke-linejoin="miter" stroke-miterlimit="10" stroke-dasharray="" stroke-dashoffset="0" style="mix-blend-mode: normal"><path d="M272.11502,180c0,17.84612 -14.37838,32.31326 -32.11502,32.31326c-17.73663,0 -32.11502,-14.46714 -32.11502,-32.31326c0,-17.84612 14.37838,-32.31326 32.11502,-32.31326c17.73663,0 32.11502,14.46714 32.11502,32.31326z" fill="url(#color-1)" stroke="#c29d00" stroke-width="2" stroke-linecap="butt"/><path d="M240.04289,187.65967c-12.58729,0 -22.7913,-8.67341 -22.7913,-19.37261c0,-10.69919 10.20401,-19.37261 22.7913,-19.37261c12.58729,0 22.79131,8.67341 22.79131,19.37261c0,10.69919 -10.20402,19.37261 -22.79131,19.37261z" fill="#00ff28" stroke="#16bf00" stroke-width="2" stroke-linecap="butt"/><path d="M231.69181,210.94546c0,0 0.1407,-15.90501 -0.86809,-22.59875c-0.80656,-5.35184 -4.71483,-14.44619 -4.71483,-14.44619c0,0 2.30495,-0.11894 3.82304,-0.19727c0.92397,-0.04767 3.00815,11.3756 4.54034,11.29654c2.1759,-0.11228 3.7546,-11.72457 3.7546,-11.72457l3.44905,-0.25394c0,0 2.55477,10.96149 3.6079,10.25801c2.05606,-1.37344 4.14321,-10.5916 4.14321,-10.5916l3.83516,1.44292c0,0 -3.28486,9.19419 -4.05408,14.26653c-1.02003,6.72627 -1.52884,22.54831 -1.52884,22.54831z" fill="#803700" stroke="none" stroke-width="0" stroke-linecap="butt"/><path d="M231.82077,172.80387c0,0 -1.06014,1.8641 -1.92882,1.92851c-0.61405,0.04553 -1.14128,-1.55648 -1.84367,-1.89181c-0.61287,-0.2926 -1.67563,0.93966 -2.00057,0.86858c-0.8066,-0.17644 -1.75154,-1.589 -1.75154,-1.589" fill="none" stroke="#16bf00" stroke-width="2.5" stroke-linecap="round"/><path d="M243.82074,172.18229c0,0 -0.63352,1.77217 -1.6743,1.90227c-0.56052,0.07006 -1.42059,-2.15428 -1.95394,-2.08761c-0.45184,0.05648 -1.3637,2.02316 -1.64335,2.05812c-0.76626,0.09578 -1.61416,-1.42733 -1.61416,-1.42733" fill="none" stroke="#16bf00" stroke-width="2.5" stroke-linecap="round"/><path d="M254.88142,173.29767c0,0 0.06573,0.20669 -1.99706,0.68298c-0.35354,0.08163 -0.94308,-2.13837 -1.25605,-2.23933c-0.3972,-0.12813 -1.76946,1.03667 -2.01895,0.95619c-0.73585,-0.23737 -1.02317,-1.59954 -1.02317,-1.59954" fill="none" stroke="#16bf00" stroke-width="2.5" stroke-linecap="round"/><path d="M248.93954,186.75141" fill="none" stroke="#995417" stroke-width="5" stroke-linecap="round"/><path d="M253.03431,164.53686c0,-1.8275 1.48149,-3.30899 3.30899,-3.30899c1.8275,0 3.30899,1.48149 3.30899,3.30899c0,1.8275 -1.48149,3.30899 -3.30899,3.30899c-1.8275,0 -3.30899,-1.48149 -3.30899,-3.30899z" fill="#ffcf19" stroke="#af8900" stroke-width="1.5" stroke-linecap="butt"/><path d="M258.49926,162.4637c0,0 -0.11669,0.07878 -0.14314,0.143c-0.0439,0.10661 -0.09558,0.3458 -0.09558,0.3458l-0.07633,-0.37059l-0.16238,-0.11822c0,0 0.11427,-0.03788 0.14381,-0.11322c0.04186,-0.10674 0.08354,-0.30737 0.08354,-0.30737l0.08164,0.30603z" fill="#ffffff" stroke="#ffffff" stroke-width="1.5" stroke-linecap="butt"/><path d="M256.8053,206.20085z" fill="none" stroke="#ededed" stroke-width="3" stroke-linecap="butt"/><path d="M219.21444,172.32017c0,-1.82751 1.48149,-3.30899 3.30899,-3.30899c1.8275,0 3.30899,1.48148 3.30899,3.30899c0,1.82751 -1.48148,3.30899 -3.30899,3.30899c-1.8275,0 -3.30899,-1.48148 -3.30899,-3.30899z" fill="#ffcf19" stroke="#af8900" stroke-width="1.5" stroke-linecap="butt"/><path d="M224.99605,171.01802c0,0 0.06737,-0.04548 0.08264,-0.08256c0.02535,-0.06155 0.05518,-0.19965 0.05518,-0.19965l0.04407,0.21396l0.09375,0.06825c0,0 -0.06597,0.02187 -0.08303,0.06537c-0.02417,0.06163 -0.04823,0.17746 -0.04823,0.17746l-0.04713,-0.17669z" fill="#ffffff" stroke="#ffffff" stroke-width="1.5" stroke-linecap="butt"/><path d="M234.90821,155.05368c0,-1.82751 1.48149,-3.30899 3.30899,-3.30899c1.8275,0 3.30899,1.48148 3.30899,3.30899c0,1.82751 -1.48148,3.30899 -3.30899,3.30899c-1.8275,0 -3.30899,-1.48148 -3.30899,-3.30899z" fill="#ffcf19" stroke="#af8900" stroke-width="1.5" stroke-linecap="butt"/><path d="M240.1055,152.32878c0,0 -0.27228,0.18381 -0.33399,0.33367c-0.10243,0.24876 -0.22303,0.80687 -0.22303,0.80687l-0.17811,-0.8647l-0.3789,-0.27584c0,0 0.26662,-0.08839 0.33556,-0.26419c0.09767,-0.24907 0.19492,-0.7172 0.19492,-0.7172l0.19049,0.71408z" fill="#ffffff" stroke="#ffffff" stroke-width="1.5" stroke-linecap="butt"/><path d="M251.9204,181.44123c0,-1.82751 1.48149,-3.30899 3.30899,-3.30899c1.8275,0 3.30899,1.48148 3.30899,3.30899c0,1.82751 -1.48148,3.30899 -3.30899,3.30899c-1.8275,0 -3.30899,-1.48148 -3.30899,-3.30899z" fill="#ffcf19" stroke="#af8900" stroke-width="1.5" stroke-linecap="butt"/><path d="M257.1846,178.87927c0,0 -0.23339,0.15756 -0.28628,0.286c-0.0878,0.21322 -0.19116,0.69161 -0.19116,0.69161l-0.15267,-0.74117l-0.32477,-0.23644c0,0 0.22853,-0.07576 0.28762,-0.22645c0.08372,-0.21348 0.16708,-0.61474 0.16708,-0.61474l0.16328,0.61207z" fill="#ffffff" stroke="#ffffff" stroke-width="1.5" stroke-linecap="butt"/><path d="M232.01709,169.44838c0,-1.82751 1.48149,-3.30899 3.30899,-3.30899c1.8275,0 3.30899,1.48148 3.30899,3.30899c0,1.82751 -1.48148,3.30899 -3.30899,3.30899c-1.8275,0 -3.30899,-1.48148 -3.30899,-3.30899z" fill="#ffcf19" stroke="#af8900" stroke-width="1.5" stroke-linecap="butt"/><path d="M237.51551,167.45669c0,0 -0.09724,0.06565 -0.11928,0.11917c-0.03658,0.08884 -0.07965,0.28817 -0.07965,0.28817l-0.06361,-0.30882l-0.13532,-0.09851c0,0 0.09522,-0.03157 0.11984,-0.09435c0.03488,-0.08895 0.06961,-0.25614 0.06961,-0.25614l0.06803,0.25503z" fill="#ffffff" stroke="#ffffff" stroke-width="1.5" stroke-linecap="butt"/></g></g></svg>