<svg version="1.1" xmlns="http://www.w3.org/2000/svg" xmlns:xlink="http://www.w3.org/1999/xlink" width="72.24816" height="72.68178" viewBox="0,0,72.24816,72.68178"><defs><radialGradient cx="240" cy="180" r="35.34089" gradientUnits="userSpaceOnUse" id="color-1"><stop offset="0" stop-color="#ffe800"/><stop offset="1" stop-color="#ffc300"/></radialGradient></defs><g transform="translate(-203.87592,-143.65911)"><g data-paper-data="{&quot;isPaintingLayer&quot;:true}" fill-rule="nonzero" stroke-linejoin="miter" stroke-miterlimit="10" stroke-dasharray="" stroke-dashoffset="0" style="mix-blend-mode: normal"><path d="M275.12408,180c0,19.51824 -15.72559,35.34089 -35.12408,35.34089c-19.39848,0 -35.12408,-15.82265 -35.12408,-35.34089c0,-19.51824 15.72558,-35.34089 35.12408,-35.34089c19.39849,0 35.12408,15.82265 35.12408,35.34089z" fill="url(#color-1)" stroke="#c29d00" stroke-width="2" stroke-linecap="butt"/><path d="M212.76736,179.99171c0,-15.05058 12.20092,-27.25149 27.25149,-27.25149c15.05058,0 27.25148,12.20092 27.25148,27.25149c0,15.05058 -12.20091,27.25148 -27.25148,27.25148c-15.05058,0 -27.25149,-12.20091 -27.25149,-27.25148z" fill="#ffcf19" stroke="#af8900" stroke-width="3.5" stroke-linecap="butt"/><path d="M234.30812,155.6158c0,0 17.04827,-4.52613 26.28462,9.59039c10.37026,15.84955 0.34983,28.37189 0.34983,28.37189" fill="none" stroke="#f9d965" stroke-width="1.5" stroke-linecap="round"/><g fill="none" stroke="#ffdf69" stroke-width="3" stroke-linecap="round"><path d="M246.09298,167.08464c-2.16073,0.23243 -6.64526,-2.24235 -11.73471,-0.5037c-4.66069,1.59217 -7.46383,3.47937 -6.68366,8.00126c0.78018,4.5219 6.251,7.50513 9.64302,7.15461c3.88809,-0.40179 9.56266,4.58467 9.61316,7.24434c0.04266,2.24735 -2.62121,8.55981 -8.82541,9.20298c-6.31936,0.65509 -12.20761,-4.80756 -12.20761,-4.80756"/><path d="M232.8789,202.31472l0.7267,-41.0589"/><path d="M241.59936,161.61917l-0.7267,40.69555"/></g><path d="M249.69729,164.97822c-2.16073,0.23243 -6.64527,-2.24236 -11.73472,-0.5037c-4.66069,1.59217 -7.46382,3.47937 -6.68365,8.00126c0.78018,4.5219 6.251,7.50514 9.64302,7.15463c3.88809,-0.40179 9.56266,4.58465 9.61316,7.24433c0.04266,2.24735 -2.62121,8.55981 -8.82541,9.20299c-6.31936,0.65509 -12.2076,-4.80757 -12.2076,-4.80757" fill="none" stroke="#af8900" stroke-width="5" stroke-linecap="round"/><path d="M237.20991,159.1494l-0.7267,41.05891" fill="none" stroke="#af8900" stroke-width="5" stroke-linecap="round"/><path d="M245.20368,159.51275l-0.72671,40.69556" fill="none" stroke="#af8900" stroke-width="5" stroke-linecap="round"/><path d="M255.34886,183.22448z" fill="none" stroke="#ededed" stroke-width="3" stroke-linecap="butt"/><path d="M224.68882,200.77793c0,0 -5.51203,-2.32485 -9.35983,-12.26967c-3.35262,-8.66498 -0.9382,-13.70943 -0.9382,-13.70943" fill="none" stroke="#d1a400" stroke-width="1.5" stroke-linecap="round"/><path d="M265.96145,167.94442l-0.10087,-7.95784l-2.09091,-0.0265l3.44423,-3.44423l3.75734,3.13111l-2.19178,0.15655l0.31311,7.98434z" fill="#1dff00" stroke="#38b700" stroke-width="1.5" stroke-linecap="butt"/><path d="M261.20933,166.03966l-0.15341,-12.10256l-3.17992,-0.0403l5.23809,-5.2381l5.71429,4.7619l-3.33333,0.2381l0.47619,12.14286z" fill="#1dff00" stroke="#38b700" stroke-width="1.5" stroke-linecap="butt"/><path d="M257.0443,168.8968l-0.1261,-9.94731l-2.61363,-0.03312l4.30529,-4.30529l4.69667,3.9139l-2.73972,0.1957l0.39139,9.98044z" fill="#1dff00" stroke="#38b700" stroke-width="1.5" stroke-linecap="butt"/></g></g></svg>